<svg id="visual" viewBox="0 0 960 540" width="960" height="540" xmlns="http://www.w3.org/2000/svg" xmlns:xlink="http://www.w3.org/1999/xlink" version="1.1"><path d="M0 98L87 98L87 87L175 87L175 147L262 147L262 147L349 147L349 60L436 60L436 93L524 93L524 141L611 141L611 147L698 147L698 82L785 82L785 93L873 93L873 98L960 98L960 60L960 0L960 0L873 0L873 0L785 0L785 0L698 0L698 0L611 0L611 0L524 0L524 0L436 0L436 0L349 0L349 0L262 0L262 0L175 0L175 0L87 0L87 0L0 0Z" fill="#ffc0c0"></path><path d="M0 195L87 195L87 125L175 125L175 233L262 233L262 212L349 212L349 109L436 109L436 131L524 131L524 233L611 233L611 195L698 195L698 120L785 120L785 185L873 185L873 206L960 206L960 147L960 58L960 96L873 96L873 91L785 91L785 80L698 80L698 145L611 145L611 139L524 139L524 91L436 91L436 58L349 58L349 145L262 145L262 145L175 145L175 85L87 85L87 96L0 96Z" fill="#f1aaa9"></path><path d="M0 363L87 363L87 314L175 314L175 411L262 411L262 395L349 395L349 233L436 233L436 314L524 314L524 363L611 363L611 363L698 363L698 368L785 368L785 320L873 320L873 341L960 341L960 222L960 145L960 204L873 204L873 183L785 183L785 118L698 118L698 193L611 193L611 231L524 231L524 129L436 129L436 107L349 107L349 210L262 210L262 231L175 231L175 123L87 123L87 193L0 193Z" fill="#e39493"></path><path d="M0 444L87 444L87 347L175 347L175 444L262 444L262 455L349 455L349 298L436 298L436 395L524 395L524 411L611 411L611 433L698 433L698 449L785 449L785 374L873 374L873 411L960 411L960 303L960 220L960 339L873 339L873 318L785 318L785 366L698 366L698 361L611 361L611 361L524 361L524 312L436 312L436 231L349 231L349 393L262 393L262 409L175 409L175 312L87 312L87 361L0 361Z" fill="#d47e7d"></path><path d="M0 541L87 541L87 541L175 541L175 541L262 541L262 541L349 541L349 541L436 541L436 541L524 541L524 541L611 541L611 541L698 541L698 541L785 541L785 541L873 541L873 541L960 541L960 541L960 301L960 409L873 409L873 372L785 372L785 447L698 447L698 431L611 431L611 409L524 409L524 393L436 393L436 296L349 296L349 453L262 453L262 442L175 442L175 345L87 345L87 442L0 442Z" fill="#c56868"></path></svg>